<svg version="1.1" id="Layer_1" xmlns="http://www.w3.org/2000/svg" xmlns:xlink="http://www.w3.org/1999/xlink" x="0px" y="0px"
	 width="100%" viewBox="0 0 1181 1181" enable-background="new 0 0 1181 1181" xml:space="preserve">
<path fill="none" opacity="1.000000" stroke="none" 
	d="
M693.000000,1182.000000 
	C462.000000,1182.000000 231.500000,1182.000000 1.000000,1182.000000 
	C1.000000,788.333313 1.000000,394.666656 1.000000,1.000000 
	C394.666656,1.000000 788.333313,1.000000 1182.000000,1.000000 
	C1182.000000,394.666656 1182.000000,788.333313 1182.000000,1182.000000 
	C1019.166687,1182.000000 856.333313,1182.000000 693.000000,1182.000000 
M1070.590942,438.037201 
	C1102.807373,383.071442 1135.023682,328.105713 1167.771362,272.233276 
	C1104.806030,272.980957 1043.095703,273.713715 980.840271,273.943512 
	C965.238708,257.100067 950.474304,239.377151 933.877991,223.578613 
	C884.717590,176.781387 828.252075,141.295074 764.680847,117.170105 
	C706.896240,95.241112 647.111877,84.508568 585.389954,84.527313 
	C539.354126,84.541306 494.113464,90.781067 449.795807,103.291176 
	C411.834778,114.006905 375.622864,129.014160 341.150696,148.217987 
	C308.598694,166.352127 278.454498,187.822845 250.533020,212.513443 
	C217.420380,241.794540 188.694931,274.849243 164.186325,311.585846 
	C157.279053,321.939362 150.749619,332.544983 143.242935,343.056549 
	C112.252419,350.945282 81.261902,358.834015 49.968529,366.799866 
	C54.418865,376.031647 59.241322,384.763123 62.865311,393.966522 
	C65.629723,400.986938 69.403244,403.501099 77.138374,403.109253 
	C89.866295,402.464539 102.670830,403.332581 115.160614,404.328033 
	C93.439484,458.930176 81.410522,515.594360 79.327576,574.317139 
	C77.821999,616.762634 81.584778,658.755310 90.733482,700.266968 
	C110.221146,788.690979 150.660828,866.343079 211.330154,933.347778 
	C260.495392,987.646912 318.880798,1029.388672 386.143585,1058.551880 
	C445.100739,1084.114014 506.765411,1097.796875 570.955994,1099.785889 
	C626.633362,1101.511108 681.171387,1094.195801 734.431824,1077.765015 
	C798.988708,1057.849121 857.193176,1026.145142 909.188171,983.068848 
	C942.951233,955.097229 972.529907,923.201782 998.119019,887.575195 
	C1028.053711,845.898438 1051.231567,800.775269 1067.462280,752.119629 
	C1088.249023,689.806152 1096.446411,625.838013 1092.315186,560.265259 
	C1090.311157,528.453552 1085.566650,497.104431 1077.370850,466.287781 
	C1074.897583,456.987823 1072.529785,447.659821 1070.590942,438.037201 
z"/>
<path fill="#EC1C24" opacity="1.000000" stroke="none" 
	d="
M144.046875,343.034973 
	C150.749619,332.544983 157.279053,321.939362 164.186325,311.585846 
	C188.694931,274.849243 217.420380,241.794540 250.533020,212.513443 
	C278.454498,187.822845 308.598694,166.352127 341.150696,148.217987 
	C375.622864,129.014160 411.834778,114.006905 449.795807,103.291176 
	C494.113464,90.781067 539.354126,84.541306 585.389954,84.527313 
	C647.111877,84.508568 706.896240,95.241112 764.680847,117.170105 
	C828.252075,141.295074 884.717590,176.781387 933.877991,223.578613 
	C950.474304,239.377151 965.238708,257.100067 981.311768,274.424225 
	C987.539734,282.384735 993.296326,289.864502 999.127441,297.665100 
	C999.707825,298.828247 1000.166931,299.702911 1000.726013,300.508179 
	C1017.226074,324.272156 1032.183594,348.940826 1044.303101,375.251556 
	C1049.637207,386.831512 1054.739014,398.518372 1060.024170,410.530212 
	C1061.601807,415.404419 1063.001099,419.941833 1064.628784,424.395721 
	C1066.343262,429.086945 1068.276245,433.698364 1070.113647,438.344666 
	C1072.529785,447.659821 1074.897583,456.987823 1077.370850,466.287781 
	C1085.566650,497.104431 1090.311157,528.453552 1092.315186,560.265259 
	C1096.446411,625.838013 1088.249023,689.806152 1067.462280,752.119629 
	C1051.231567,800.775269 1028.053711,845.898438 998.119019,887.575195 
	C972.529907,923.201782 942.951233,955.097229 909.188171,983.068848 
	C857.193176,1026.145142 798.988708,1057.849121 734.431824,1077.765015 
	C681.171387,1094.195801 626.633362,1101.511108 570.955994,1099.785889 
	C506.765411,1097.796875 445.100739,1084.114014 386.143585,1058.551880 
	C318.880798,1029.388672 260.495392,987.646912 211.330154,933.347778 
	C150.660828,866.343079 110.221146,788.690979 90.733482,700.266968 
	C81.584778,658.755310 77.821999,616.762634 79.327576,574.317139 
	C81.410522,515.594360 93.439484,458.930176 115.421318,403.665985 
	C118.406425,396.780884 121.130821,390.557861 123.981277,383.978088 
	C125.573532,380.390991 127.039719,377.160553 128.570923,373.610413 
	C131.166183,368.480652 133.748062,363.696869 136.212723,358.853424 
	C138.881119,353.609619 141.440140,348.310150 144.046875,343.034973 
M507.282990,990.555786 
	C511.855225,991.399414 516.415710,992.313599 521.001465,993.075867 
	C569.276001,1001.100769 617.477905,1000.288391 665.386108,990.654053 
	C722.225159,979.223755 774.350464,956.628296 821.399475,922.582275 
	C822.647766,921.678955 823.835938,920.692566 825.178406,919.646484 
	C824.316101,918.629395 823.927063,918.097229 823.466003,917.637207 
	C778.438477,872.715759 733.410095,827.795166 688.370972,782.885376 
	C663.889099,758.473877 639.388123,734.081482 614.452209,709.245056 
	C599.865967,694.670654 585.321472,680.054016 570.672485,665.542908 
	C564.906250,659.830933 558.906616,654.354492 552.708252,648.194885 
	C546.801392,642.162109 540.953186,636.070557 534.978638,630.105591 
	C468.767639,564.000488 402.539612,497.912354 336.309967,431.825897 
	C321.348999,416.897278 306.364227,401.992493 291.012878,386.747620 
	C280.116455,376.062378 269.220032,365.377136 257.485443,353.869965 
	C250.680832,364.671692 243.917419,375.408020 236.739716,386.801666 
	C234.665512,390.400269 232.550247,393.975922 230.523483,397.601013 
	C209.236984,435.674194 194.961670,476.282166 187.051514,519.117859 
	C179.939255,557.632690 178.757965,596.399353 182.787521,635.356384 
	C186.695587,673.138794 195.923218,709.569763 210.262253,744.710999 
	C224.477600,779.549255 243.256409,811.734863 266.388550,841.431824 
	C289.425018,871.005859 316.097137,896.803772 346.126770,919.162903 
	C371.833527,938.303162 399.451477,954.297607 429.067108,966.415955 
	C446.675079,973.621033 465.120575,978.779419 483.876862,985.166992 
	C491.505066,986.757812 499.133270,988.348572 507.282990,990.555786 
M409.568359,328.654419 
	C423.655853,342.758972 437.702606,356.904572 451.847046,370.951752 
	C459.613312,378.664673 467.544342,386.211700 475.819214,394.436401 
	C479.531586,398.245789 483.195038,402.104309 486.963867,405.856995 
	C525.826477,444.552948 564.706177,483.231781 604.043152,522.455688 
	C617.271118,535.610229 630.499084,548.764709 644.161560,562.462280 
	C645.425049,563.788452 646.658752,565.144592 647.956299,566.436584 
	C689.254456,607.560669 730.592285,648.644958 771.852966,689.806580 
	C812.781738,730.637207 853.660767,771.517822 894.490662,812.447266 
	C900.705322,818.677063 906.535339,825.290588 912.917725,832.127747 
	C914.839722,829.605713 915.937134,828.375366 916.801941,826.998779 
	C925.195129,813.638794 934.148254,800.587646 941.810486,786.818970 
	C974.010742,728.956116 990.253174,666.665833 991.840698,600.566956 
	C992.796326,560.780090 988.227112,521.514893 976.815552,483.390594 
	C970.743835,463.105896 962.272217,443.539520 954.677979,423.012115 
	C933.307434,376.293091 903.971008,335.241791 866.447815,299.257050 
	C864.877686,297.781982 863.304321,296.310272 861.737854,294.831360 
	C839.991211,274.299866 816.090393,256.621216 790.292603,241.559052 
	C743.098755,214.004761 692.447205,196.606537 638.165833,189.518127 
	C597.250610,184.175156 556.524536,185.096008 516.008057,192.207092 
	C470.125061,200.260056 426.790436,215.822403 386.450562,239.242020 
	C372.677307,247.238220 359.416016,256.116302 345.197510,265.045715 
	C352.418365,272.110535 358.837524,278.372223 365.236023,284.654968 
	C379.964020,299.116577 394.681976,313.588379 409.568359,328.654419 
z"/>
<path fill="#050402" opacity="1.000000" stroke="none" 
	d="
M999.052856,297.344299 
	C993.296326,289.864502 987.539734,282.384735 981.584351,274.675720 
	C1043.095703,273.713715 1104.806030,272.980957 1167.771362,272.233276 
	C1135.023682,328.105713 1102.807373,383.071442 1070.352295,438.190918 
	C1068.276245,433.698364 1066.343262,429.086945 1064.628784,424.395721 
	C1063.001099,419.941833 1061.601807,415.404419 1060.175293,410.206207 
	C1061.341553,407.646667 1062.503418,405.821320 1063.517090,403.917206 
	C1079.917725,373.109528 1096.312134,342.298553 1112.672363,311.469543 
	C1115.260376,306.592926 1117.674927,301.624329 1120.661743,295.726776 
	C1079.158203,296.278809 1039.105591,296.811554 999.052856,297.344299 
z"/>
<path fill="#070502" opacity="1.000000" stroke="none" 
	d="
M143.644897,343.045776 
	C141.440140,348.310150 138.881119,353.609619 136.212723,358.853424 
	C133.748062,363.696869 131.166183,368.480652 128.121124,373.528442 
	C115.275269,376.277924 102.965927,378.870300 89.609566,382.725769 
	C91.491371,383.724579 91.762642,383.993011 92.037094,383.996307 
	C102.642952,384.124207 113.249107,384.227905 123.855217,384.334808 
	C121.130821,390.557861 118.406425,396.780884 115.562546,403.283417 
	C102.670830,403.332581 89.866295,402.464539 77.138374,403.109253 
	C69.403244,403.501099 65.629723,400.986938 62.865311,393.966522 
	C59.241322,384.763123 54.418865,376.031647 49.968529,366.799866 
	C81.261902,358.834015 112.252419,350.945282 143.644897,343.045776 
z"/>
<path fill="#000000" opacity="1.000000" stroke="none" 
	d="
M291.390442,387.076691 
	C306.364227,401.992493 321.348999,416.897278 336.309967,431.825897 
	C402.539612,497.912354 468.767639,564.000488 534.978638,630.105591 
	C540.953186,636.070557 546.801392,642.162109 552.708984,648.836609 
	C546.034302,670.378845 539.084045,691.196411 532.740906,712.197266 
	C519.717529,755.315979 508.622375,798.935608 499.434845,843.042603 
	C489.689575,889.827209 480.586243,936.666992 483.189545,984.857971 
	C465.120575,978.779419 446.675079,973.621033 429.067108,966.415955 
	C399.451477,954.297607 371.833527,938.303162 346.126770,919.162903 
	C316.097137,896.803772 289.425018,871.005859 266.388550,841.431824 
	C243.256409,811.734863 224.477600,779.549255 210.262253,744.710999 
	C195.923218,709.569763 186.695587,673.138794 182.787521,635.356384 
	C178.757965,596.399353 179.939255,557.632690 187.051514,519.117859 
	C194.961670,476.282166 209.236984,435.674194 230.523483,397.601013 
	C232.550247,393.975922 234.665512,390.400269 237.403656,386.561218 
	C249.297928,386.624176 260.526886,387.006104 271.759094,387.200958 
	C278.300171,387.314423 284.846497,387.128113 291.390442,387.076691 
z"/>
<path fill="#010000" opacity="1.000000" stroke="none" 
	d="
M954.883850,423.648926 
	C962.272217,443.539520 970.743835,463.105896 976.815552,483.390594 
	C988.227112,521.514893 992.796326,560.780090 991.840698,600.566956 
	C990.253174,666.665833 974.010742,728.956116 941.810486,786.818970 
	C934.148254,800.587646 925.195129,813.638794 916.801941,826.998779 
	C915.937134,828.375366 914.839722,829.605713 912.917725,832.127747 
	C906.535339,825.290588 900.705322,818.677063 894.490662,812.447266 
	C853.660767,771.517822 812.781738,730.637207 771.852966,689.806580 
	C730.592285,648.644958 689.254456,607.560669 647.956299,566.436584 
	C646.658752,565.144592 645.425049,563.788452 644.057495,561.781372 
	C645.036560,541.372742 646.372681,521.653564 647.040161,501.911774 
	C647.227295,496.377777 646.065613,490.589050 644.441162,485.245941 
	C640.922974,473.673920 637.571960,472.938934 629.168579,481.653107 
	C617.927856,493.309662 611.036255,507.809631 603.581055,521.915405 
	C564.706177,483.231781 525.826477,444.552948 486.963867,405.856995 
	C483.195038,402.104309 479.531586,398.245789 476.130005,394.109497 
	C491.549225,394.440674 506.662933,394.995422 521.764954,395.776459 
	C565.901062,398.059052 610.036621,400.358246 654.164368,402.794312 
	C685.508301,404.524658 716.850830,406.315460 748.173218,408.391235 
	C784.961060,410.829193 821.731506,413.537384 858.500183,416.254150 
	C890.634766,418.628510 922.756470,421.177246 954.883850,423.648926 
z"/>
<path fill="#010000" opacity="1.000000" stroke="none" 
	d="
M409.404022,328.056061 
	C394.681976,313.588379 379.964020,299.116577 365.236023,284.654968 
	C358.837524,278.372223 352.418365,272.110535 345.197510,265.045715 
	C359.416016,256.116302 372.677307,247.238220 386.450562,239.242020 
	C426.790436,215.822403 470.125061,200.260056 516.008057,192.207092 
	C556.524536,185.096008 597.250610,184.175156 638.165833,189.518127 
	C692.447205,196.606537 743.098755,214.004761 790.292603,241.559052 
	C816.090393,256.621216 839.991211,274.299866 861.737854,294.831360 
	C863.304321,296.310272 864.877686,297.781982 866.220337,299.477295 
	C842.208435,300.365082 818.416870,300.844513 794.641052,301.742188 
	C754.409363,303.261230 714.180481,304.888916 673.964417,306.771393 
	C646.877563,308.039307 619.795898,309.553467 592.746338,311.447998 
	C560.723938,313.690887 528.713806,316.189087 496.744293,319.083466 
	C467.598999,321.722137 438.515015,325.038422 409.404022,328.056061 
z"/>
<path fill="#010000" opacity="1.000000" stroke="none" 
	d="
M614.895874,709.680481 
	C639.388123,734.081482 663.889099,758.473877 688.370972,782.885376 
	C733.410095,827.795166 778.438477,872.715759 823.466003,917.637207 
	C823.927063,918.097229 824.316101,918.629395 825.178406,919.646484 
	C823.835938,920.692566 822.647766,921.678955 821.399475,922.582275 
	C774.350464,956.628296 722.225159,979.223755 665.386108,990.654053 
	C617.477905,1000.288391 569.276001,1001.100769 521.001465,993.075867 
	C516.415710,992.313599 511.855225,991.399414 507.188904,989.944763 
	C512.372375,981.471069 518.046753,973.842957 522.857788,965.704468 
	C542.073730,933.198608 555.636719,898.123962 567.771790,862.576294 
	C580.391235,825.609619 591.777954,788.218079 603.417603,750.923035 
	C607.666931,737.307617 611.093750,723.435486 614.895874,709.680481 
z"/>
<path fill="#F6E935" opacity="1.000000" stroke="none" 
	d="
M409.486206,328.355225 
	C438.515015,325.038422 467.598999,321.722137 496.744293,319.083466 
	C528.713806,316.189087 560.723938,313.690887 592.746338,311.447998 
	C619.795898,309.553467 646.877563,308.039307 673.964417,306.771393 
	C714.180481,304.888916 754.409363,303.261230 794.641052,301.742188 
	C818.416870,300.844513 842.208435,300.365082 866.458679,299.686951 
	C903.971008,335.241791 933.307434,376.293091 954.780884,423.330505 
	C922.756470,421.177246 890.634766,418.628510 858.500183,416.254150 
	C821.731506,413.537384 784.961060,410.829193 748.173218,408.391235 
	C716.850830,406.315460 685.508301,404.524658 654.164368,402.794312 
	C610.036621,400.358246 565.901062,398.059052 521.764954,395.776459 
	C506.662933,394.995422 491.549225,394.440674 475.920959,393.808044 
	C467.544342,386.211700 459.613312,378.664673 451.847046,370.951752 
	C437.702606,356.904572 423.655853,342.758972 409.486206,328.355225 
z"/>
<path fill="#F6E835" opacity="1.000000" stroke="none" 
	d="
M614.674072,709.462769 
	C611.093750,723.435486 607.666931,737.307617 603.417603,750.923035 
	C591.777954,788.218079 580.391235,825.609619 567.771790,862.576294 
	C555.636719,898.123962 542.073730,933.198608 522.857788,965.704468 
	C518.046753,973.842957 512.372375,981.471069 506.928131,989.636536 
	C499.133270,988.348572 491.505066,986.757812 483.533203,985.012451 
	C480.586243,936.666992 489.689575,889.827209 499.434845,843.042603 
	C508.622375,798.935608 519.717529,755.315979 532.740906,712.197266 
	C539.084045,691.196411 546.034302,670.378845 552.861572,649.124512 
	C558.906616,654.354492 564.906250,659.830933 570.672485,665.542908 
	C585.321472,680.054016 599.865967,694.670654 614.674072,709.462769 
z"/>
<path fill="#F5E835" opacity="1.000000" stroke="none" 
	d="
M999.127441,297.665100 
	C1039.105591,296.811554 1079.158203,296.278809 1120.661743,295.726776 
	C1117.674927,301.624329 1115.260376,306.592926 1112.672363,311.469543 
	C1096.312134,342.298553 1079.917725,373.109528 1063.517090,403.917206 
	C1062.503418,405.821320 1061.341553,407.646667 1060.097534,409.832672 
	C1054.739014,398.518372 1049.637207,386.831512 1044.303101,375.251556 
	C1032.183594,348.940826 1017.226074,324.272156 1000.726013,300.508179 
	C1000.166931,299.702911 999.707825,298.828247 999.127441,297.665100 
z"/>
<path fill="#F3E635" opacity="1.000000" stroke="none" 
	d="
M603.812134,522.185547 
	C611.036255,507.809631 617.927856,493.309662 629.168579,481.653107 
	C637.571960,472.938934 640.922974,473.673920 644.441162,485.245941 
	C646.065613,490.589050 647.227295,496.377777 647.040161,501.911774 
	C646.372681,521.653564 645.036560,541.372742 643.840332,561.509827 
	C630.499084,548.764709 617.271118,535.610229 603.812134,522.185547 
z"/>
<path fill="#F2E334" opacity="1.000000" stroke="none" 
	d="
M291.201660,386.912170 
	C284.846497,387.128113 278.300171,387.314423 271.759094,387.200958 
	C260.526886,387.006104 249.297928,386.624176 237.610809,386.232544 
	C243.917419,375.408020 250.680832,364.671692 257.485443,353.869965 
	C269.220032,365.377136 280.116455,376.062378 291.201660,386.912170 
z"/>
<path fill="#EEDE34" opacity="1.000000" stroke="none" 
	d="
M123.981277,383.978088 
	C113.249107,384.227905 102.642952,384.124207 92.037094,383.996307 
	C91.762642,383.993011 91.491371,383.724579 89.609566,382.725769 
	C102.965927,378.870300 115.275269,376.277924 128.056122,373.848145 
	C127.039719,377.160553 125.573532,380.390991 123.981277,383.978088 
z"/>
</svg>